{"scene": 0, "scenes": [{"nodes": [0], "extras": {"file_path": "C:\\Users\\nfioraio\\projects\\github\\pipelime-python\\tests\\sample_data\\items\\5.glb", "file_name": "5.glb"}}], "asset": {"version": "2.0", "generator": "https://github.com/mikedh/trimesh"}, "accessors": [{"componentType": 5125, "type": "SCALAR", "bufferView": 0, "count": 2844, "max": [452], "min": [0]}, {"componentType": 5126, "type": "VEC3", "byteOffset": 0, "bufferView": 1, "count": 453, "max": [0.058159101754426956, 0.18189699947834015, 0.05780079960823059], "min": [-0.09314659982919693, 0.03362039849162102, -0.056644000113010406]}], "meshes": [{"name": "geometry_0", "extras": {"units": "meters", "processed": true, "from_gltf_primitive": false}, "primitives": [{"attributes": {"POSITION": 1}, "indices": 0, "mode": 4}]}], "nodes": [{"name": "world", "children": [1]}, {"name": "geometry_0", "mesh": 0}], "buffers": [{"uri": "data:application/octet-stream;base64,", "byteLength": 11376}, {"uri": "data:application/octet-stream;base64,", "byteLength": 5436}], "bufferViews": [{"buffer": 0, "byteOffset": 0, "byteLength": 11376}, {"buffer": 1, "byteOffset": 0, "byteLength": 5436}]}