<?xml version="1.0" encoding="UTF-8" standalone="no"?>
<!DOCTYPE svg PUBLIC "-//W3C//DTD SVG 1.1//EN"
 "http://www.w3.org/Graphics/SVG/1.1/DTD/svg11.dtd">
<!-- Generated by graphviz version 5.0.1 (0)
 -->
<!-- Pages: 1 -->
<svg width="492pt" height="961pt"
 viewBox="0.00 0.00 491.50 960.63" xmlns="http://www.w3.org/2000/svg" xmlns:xlink="http://www.w3.org/1999/xlink">
<g id="graph0" class="graph" transform="scale(1 1) rotate(0) translate(4 956.63)">
<polygon fill="white" stroke="none" points="-4,4 -4,-956.63 487.5,-956.63 487.5,4 -4,4"/>
<!-- data([...] path/to/input) -->
<g id="node1" class="node">
<title>data([...] path/to/input)</title>
<path fill="#009688" stroke="black" d="M408.5,-944.3C408.5,-948.93 373.99,-952.69 331.5,-952.69 289.01,-952.69 254.5,-948.93 254.5,-944.3 254.5,-944.3 254.5,-868.82 254.5,-868.82 254.5,-864.2 289.01,-860.44 331.5,-860.44 373.99,-860.44 408.5,-864.2 408.5,-868.82 408.5,-868.82 408.5,-944.3 408.5,-944.3"/>
<path fill="none" stroke="black" d="M408.5,-944.3C408.5,-939.67 373.99,-935.91 331.5,-935.91 289.01,-935.91 254.5,-939.67 254.5,-944.3"/>
<text text-anchor="start" x="284.5" y="-902.36" font-family="Times New Roman,serif" font-size="14.00" fill="#fafafa">[...] path/to/input</text>
</g>
<!-- operation(good_split) -->
<g id="node2" class="node">
<title>operation(good_split)</title>
<polygon fill="#03a9f4" stroke="black" points="325.5,-809.5 211.5,-809.5 207.5,-805.5 207.5,-742.5 321.5,-742.5 325.5,-746.5 325.5,-809.5"/>
<polyline fill="none" stroke="black" points="321.5,-805.5 207.5,-805.5"/>
<polyline fill="none" stroke="black" points="321.5,-805.5 321.5,-742.5"/>
<polyline fill="none" stroke="black" points="321.5,-805.5 325.5,-809.5"/>
<text text-anchor="start" x="237.5" y="-771.8" font-family="Times New Roman,serif" font-size="14.00" fill="#fafafa">good_split</text>
</g>
<!-- data([...] path/to/input)&#45;&gt;operation(good_split) -->
<g id="edge1" class="edge">
<title>data([...] path/to/input)&#45;&gt;operation(good_split)</title>
<path fill="none" stroke="#00b0ff" d="M308.58,-860.24C301.82,-846.86 294.45,-832.27 287.79,-819.11"/>
<polygon fill="#00b0ff" stroke="#00b0ff" points="290.72,-817.15 283.09,-809.8 284.47,-820.31 290.72,-817.15"/>
<text text-anchor="middle" x="313.5" y="-831.3" font-family="Times New Roman,serif" font-size="14.00">input</text>
</g>
<!-- operation(bad_split) -->
<g id="node3" class="node">
<title>operation(bad_split)</title>
<polygon fill="#03a9f4" stroke="black" points="453.5,-809.5 347.5,-809.5 343.5,-805.5 343.5,-742.5 449.5,-742.5 453.5,-746.5 453.5,-809.5"/>
<polyline fill="none" stroke="black" points="449.5,-805.5 343.5,-805.5"/>
<polyline fill="none" stroke="black" points="449.5,-805.5 449.5,-742.5"/>
<polyline fill="none" stroke="black" points="449.5,-805.5 453.5,-809.5"/>
<text text-anchor="start" x="373.5" y="-771.8" font-family="Times New Roman,serif" font-size="14.00" fill="#fafafa">bad_split</text>
</g>
<!-- data([...] path/to/input)&#45;&gt;operation(bad_split) -->
<g id="edge2" class="edge">
<title>data([...] path/to/input)&#45;&gt;operation(bad_split)</title>
<path fill="none" stroke="#00b0ff" d="M355.12,-860.24C362.16,-846.73 369.84,-831.99 376.76,-818.72"/>
<polygon fill="#00b0ff" stroke="#00b0ff" points="379.89,-820.29 381.4,-809.8 373.68,-817.05 379.89,-820.29"/>
<text text-anchor="middle" x="385.5" y="-831.3" font-family="Times New Roman,serif" font-size="14.00">input</text>
</g>
<!-- data([...] tmp/good) -->
<g id="node4" class="node">
<title>data([...] tmp/good)</title>
<path fill="#009688" stroke="black" d="M335,-683.18C335,-687.8 304.3,-691.56 266.5,-691.56 228.7,-691.56 198,-687.8 198,-683.18 198,-683.18 198,-607.7 198,-607.7 198,-603.07 228.7,-599.31 266.5,-599.31 304.3,-599.31 335,-603.07 335,-607.7 335,-607.7 335,-683.18 335,-683.18"/>
<path fill="none" stroke="black" d="M335,-683.18C335,-678.55 304.3,-674.79 266.5,-674.79 228.7,-674.79 198,-678.55 198,-683.18"/>
<text text-anchor="start" x="228.5" y="-641.24" font-family="Times New Roman,serif" font-size="14.00" fill="#fafafa">[...] tmp/good</text>
</g>
<!-- operation(good_split)&#45;&gt;data([...] tmp/good) -->
<g id="edge3" class="edge">
<title>operation(good_split)&#45;&gt;data([...] tmp/good)</title>
<path fill="none" stroke="#1de9b6" stroke-dasharray="5,2" d="M266.5,-742.23C266.5,-732.89 266.5,-722.37 266.5,-711.81"/>
<polygon fill="#1de9b6" stroke="#1de9b6" points="273.5,-711.76 266.5,-691.76 259.5,-711.76 273.5,-711.76"/>
<text text-anchor="middle" x="309" y="-713.3" font-family="Times New Roman,serif" font-size="14.00">output_selected</text>
</g>
<!-- data([...] tmp/bad) -->
<g id="node5" class="node">
<title>data([...] tmp/bad)</title>
<path fill="#009688" stroke="black" d="M463.5,-573.05C463.5,-577.68 434.37,-581.44 398.5,-581.44 362.63,-581.44 333.5,-577.68 333.5,-573.05 333.5,-573.05 333.5,-497.57 333.5,-497.57 333.5,-492.95 362.63,-489.19 398.5,-489.19 434.37,-489.19 463.5,-492.95 463.5,-497.57 463.5,-497.57 463.5,-573.05 463.5,-573.05"/>
<path fill="none" stroke="black" d="M463.5,-573.05C463.5,-568.42 434.37,-564.66 398.5,-564.66 362.63,-564.66 333.5,-568.42 333.5,-573.05"/>
<text text-anchor="start" x="363.5" y="-531.11" font-family="Times New Roman,serif" font-size="14.00" fill="#fafafa">[...] tmp/bad</text>
</g>
<!-- operation(bad_split)&#45;&gt;data([...] tmp/bad) -->
<g id="edge4" class="edge">
<title>operation(bad_split)&#45;&gt;data([...] tmp/bad)</title>
<path fill="none" stroke="#1de9b6" stroke-dasharray="5,2" d="M398.5,-742.31C398.5,-706.3 398.5,-647.44 398.5,-601.85"/>
<polygon fill="#1de9b6" stroke="#1de9b6" points="405.5,-601.64 398.5,-581.64 391.5,-601.64 405.5,-601.64"/>
<text text-anchor="middle" x="441" y="-713.3" font-family="Times New Roman,serif" font-size="14.00">output_selected</text>
</g>
<!-- operation(good_train_test) -->
<g id="node6" class="node">
<title>operation(good_train_test)</title>
<polygon fill="#03a9f4" stroke="black" points="339,-471.25 198,-471.25 194,-467.25 194,-404.25 335,-404.25 339,-408.25 339,-471.25"/>
<polyline fill="none" stroke="black" points="335,-467.25 194,-467.25"/>
<polyline fill="none" stroke="black" points="335,-467.25 335,-404.25"/>
<polyline fill="none" stroke="black" points="335,-467.25 339,-471.25"/>
<text text-anchor="start" x="224.5" y="-433.55" font-family="Times New Roman,serif" font-size="14.00" fill="#fafafa">good_train_test</text>
</g>
<!-- data([...] tmp/good)&#45;&gt;operation(good_train_test) -->
<g id="edge5" class="edge">
<title>data([...] tmp/good)&#45;&gt;operation(good_train_test)</title>
<path fill="none" stroke="#00b0ff" d="M266.5,-599.3C266.5,-564.25 266.5,-515.99 266.5,-481.55"/>
<polygon fill="#00b0ff" stroke="#00b0ff" points="270,-481.34 266.5,-471.34 263,-481.34 270,-481.34"/>
<text text-anchor="middle" x="280.5" y="-531.61" font-family="Times New Roman,serif" font-size="14.00">input</text>
</g>
<!-- operation(test_dataset) -->
<g id="node9" class="node">
<title>operation(test_dataset)</title>
<polygon fill="#03a9f4" stroke="black" points="405.5,-210.13 285.5,-210.13 281.5,-206.13 281.5,-143.13 401.5,-143.13 405.5,-147.13 405.5,-210.13"/>
<polyline fill="none" stroke="black" points="401.5,-206.13 281.5,-206.13"/>
<polyline fill="none" stroke="black" points="401.5,-206.13 401.5,-143.13"/>
<polyline fill="none" stroke="black" points="401.5,-206.13 405.5,-210.13"/>
<text text-anchor="start" x="311.5" y="-172.43" font-family="Times New Roman,serif" font-size="14.00" fill="#fafafa">test_dataset</text>
</g>
<!-- data([...] tmp/bad)&#45;&gt;operation(test_dataset) -->
<g id="edge8" class="edge">
<title>data([...] tmp/bad)&#45;&gt;operation(test_dataset)</title>
<path fill="none" stroke="#00b0ff" d="M399.62,-489.15C399.97,-434.42 397.32,-339.75 378.5,-261.13 375.17,-247.23 369.79,-232.66 364.24,-219.67"/>
<polygon fill="#00b0ff" stroke="#00b0ff" points="367.44,-218.24 360.19,-210.51 361.03,-221.07 367.44,-218.24"/>
<text text-anchor="middle" x="413.5" y="-375.05" font-family="Times New Roman,serif" font-size="14.00">inputs</text>
</g>
<!-- data([...] path/to/output/train) -->
<g id="node7" class="node">
<title>data([...] path/to/output/train)</title>
<path fill="#009688" stroke="black" d="M189,-344.93C189,-349.55 146.64,-353.31 94.5,-353.31 42.36,-353.31 0,-349.55 0,-344.93 0,-344.93 0,-269.45 0,-269.45 0,-264.82 42.36,-261.06 94.5,-261.06 146.64,-261.06 189,-264.82 189,-269.45 189,-269.45 189,-344.93 189,-344.93"/>
<path fill="none" stroke="black" d="M189,-344.93C189,-340.3 146.64,-336.54 94.5,-336.54 42.36,-336.54 0,-340.3 0,-344.93"/>
<text text-anchor="start" x="30.5" y="-302.99" font-family="Times New Roman,serif" font-size="14.00" fill="#fafafa">[...] path/to/output/train</text>
</g>
<!-- operation(good_train_test)&#45;&gt;data([...] path/to/output/train) -->
<g id="edge6" class="edge">
<title>operation(good_train_test)&#45;&gt;data([...] path/to/output/train)</title>
<path fill="none" stroke="#1de9b6" stroke-dasharray="5,2" d="M222.65,-403.98C206.73,-392.07 188.24,-378.25 170.34,-364.88"/>
<polygon fill="#1de9b6" stroke="#1de9b6" points="174.38,-359.15 154.17,-352.79 166,-370.37 174.38,-359.15"/>
<text text-anchor="middle" x="211" y="-375.05" font-family="Times New Roman,serif" font-size="14.00">splits</text>
</g>
<!-- data([...] tmp/good_test) -->
<g id="node8" class="node">
<title>data([...] tmp/good_test)</title>
<path fill="#009688" stroke="black" d="M370,-344.93C370,-349.55 333.47,-353.31 288.5,-353.31 243.53,-353.31 207,-349.55 207,-344.93 207,-344.93 207,-269.45 207,-269.45 207,-264.82 243.53,-261.06 288.5,-261.06 333.47,-261.06 370,-264.82 370,-269.45 370,-269.45 370,-344.93 370,-344.93"/>
<path fill="none" stroke="black" d="M370,-344.93C370,-340.3 333.47,-336.54 288.5,-336.54 243.53,-336.54 207,-340.3 207,-344.93"/>
<text text-anchor="start" x="237.5" y="-302.99" font-family="Times New Roman,serif" font-size="14.00" fill="#fafafa">[...] tmp/good_test</text>
</g>
<!-- operation(good_train_test)&#45;&gt;data([...] tmp/good_test) -->
<g id="edge7" class="edge">
<title>operation(good_train_test)&#45;&gt;data([...] tmp/good_test)</title>
<path fill="none" stroke="#1de9b6" stroke-dasharray="5,2" d="M272.11,-403.98C273.71,-394.64 275.51,-384.12 277.31,-373.56"/>
<polygon fill="#1de9b6" stroke="#1de9b6" points="284.27,-374.41 280.74,-353.51 270.47,-372.05 284.27,-374.41"/>
<text text-anchor="middle" x="292" y="-375.05" font-family="Times New Roman,serif" font-size="14.00">splits</text>
</g>
<!-- data([...] tmp/good_test)&#45;&gt;operation(test_dataset) -->
<g id="edge10" class="edge">
<title>data([...] tmp/good_test)&#45;&gt;operation(test_dataset)</title>
<path fill="none" stroke="#00b0ff" d="M307.89,-260.86C313.61,-247.48 319.85,-232.9 325.49,-219.73"/>
<polygon fill="#00b0ff" stroke="#00b0ff" points="328.75,-221 329.47,-210.43 322.31,-218.25 328.75,-221"/>
<text text-anchor="middle" x="338.5" y="-231.93" font-family="Times New Roman,serif" font-size="14.00">inputs</text>
</g>
<!-- data([...] path/to/output/test) -->
<g id="node10" class="node">
<title>data([...] path/to/output/test)</title>
<path fill="#009688" stroke="black" d="M435,-83.8C435,-88.43 393.99,-92.19 343.5,-92.19 293.01,-92.19 252,-88.43 252,-83.8 252,-83.8 252,-8.32 252,-8.32 252,-3.7 293.01,0.06 343.5,0.06 393.99,0.06 435,-3.7 435,-8.32 435,-8.32 435,-83.8 435,-83.8"/>
<path fill="none" stroke="black" d="M435,-83.8C435,-79.17 393.99,-75.41 343.5,-75.41 293.01,-75.41 252,-79.17 252,-83.8"/>
<text text-anchor="start" x="282.5" y="-41.86" font-family="Times New Roman,serif" font-size="14.00" fill="#fafafa">[...] path/to/output/test</text>
</g>
<!-- operation(test_dataset)&#45;&gt;data([...] path/to/output/test) -->
<g id="edge9" class="edge">
<title>operation(test_dataset)&#45;&gt;data([...] path/to/output/test)</title>
<path fill="none" stroke="#1de9b6" stroke-dasharray="5,2" d="M343.5,-142.85C343.5,-133.51 343.5,-122.99 343.5,-112.44"/>
<polygon fill="#1de9b6" stroke="#1de9b6" points="350.5,-112.39 343.5,-92.39 336.5,-112.39 350.5,-112.39"/>
<text text-anchor="middle" x="361" y="-113.92" font-family="Times New Roman,serif" font-size="14.00">output</text>
</g>
</g>
</svg>
