<svg width="1322" height="1322" viewBox="0 0 1322 1322" fill="none" xmlns="http://www.w3.org/2000/svg">
<g clip-path="url(#clip0_102_2)">
<path d="M1322 661L991.5 1234L330.5 1234L-5.17495e-05 661L330.5 88L991.5 88L1322 661Z" fill="#4CAE4F"/>
<g filter="url(#filter0_d_102_2)">
<rect x="552.364" y="629.305" width="65.895" height="434.907" transform="rotate(90 552.364 629.305)" fill="#EDF4D5"/>
</g>
<g filter="url(#filter1_d_102_2)">
<rect x="901.608" y="187.809" width="65.895" height="434.907" transform="rotate(30 901.608 187.809)" fill="#EDF4D5"/>
</g>
<g filter="url(#filter2_d_102_2)">
<rect x="938.905" y="1091.61" width="65.895" height="434.907" transform="rotate(150 938.905 1091.61)" fill="#EDF4D5"/>
</g>
<g filter="url(#filter3_d_102_2)">
<path d="M365.433 154.862L71.331 661.244L365.433 1167.63H956.567L1250.67 661.244L956.567 154.862H365.433ZM149.498 661.244L388.883 249.14L556.941 547.527C489.522 602.928 489.522 720.533 556.941 775.934L388.883 1073.35L149.498 661.244ZM915.53 1102.51H450.439L616.543 808.98C701.549 836.194 796.326 778.849 811.959 693.318H1152.96L915.53 1102.51ZM811.959 629.17C795.349 544.611 701.549 488.238 616.543 514.481L450.439 219.982H915.53L1152.96 629.17H811.959Z" fill="#EDF4D5"/>
</g>
</g>
<defs>
<filter id="filter0_d_102_2" x="113.458" y="625.305" width="442.907" height="73.895" filterUnits="userSpaceOnUse" color-interpolation-filters="sRGB">
<feFlood flood-opacity="0" result="BackgroundImageFix"/>
<feColorMatrix in="SourceAlpha" type="matrix" values="0 0 0 0 0 0 0 0 0 0 0 0 0 0 0 0 0 0 127 0" result="hardAlpha"/>
<feOffset/>
<feGaussianBlur stdDeviation="2"/>
<feComposite in2="hardAlpha" operator="out"/>
<feColorMatrix type="matrix" values="0 0 0 0 0 0 0 0 0 0 0 0 0 0 0 0 0 0 0.25 0"/>
<feBlend mode="normal" in2="BackgroundImageFix" result="effect1_dropShadow_102_2"/>
<feBlend mode="normal" in="SourceGraphic" in2="effect1_dropShadow_102_2" result="shape"/>
</filter>
<filter id="filter1_d_102_2" x="680.154" y="183.809" width="282.52" height="417.588" filterUnits="userSpaceOnUse" color-interpolation-filters="sRGB">
<feFlood flood-opacity="0" result="BackgroundImageFix"/>
<feColorMatrix in="SourceAlpha" type="matrix" values="0 0 0 0 0 0 0 0 0 0 0 0 0 0 0 0 0 0 127 0" result="hardAlpha"/>
<feOffset/>
<feGaussianBlur stdDeviation="2"/>
<feComposite in2="hardAlpha" operator="out"/>
<feColorMatrix type="matrix" values="0 0 0 0 0 0 0 0 0 0 0 0 0 0 0 0 0 0 0.25 0"/>
<feBlend mode="normal" in2="BackgroundImageFix" result="effect1_dropShadow_102_2"/>
<feBlend mode="normal" in="SourceGraphic" in2="effect1_dropShadow_102_2" result="shape"/>
</filter>
<filter id="filter2_d_102_2" x="660.385" y="710.969" width="282.52" height="417.588" filterUnits="userSpaceOnUse" color-interpolation-filters="sRGB">
<feFlood flood-opacity="0" result="BackgroundImageFix"/>
<feColorMatrix in="SourceAlpha" type="matrix" values="0 0 0 0 0 0 0 0 0 0 0 0 0 0 0 0 0 0 127 0" result="hardAlpha"/>
<feOffset/>
<feGaussianBlur stdDeviation="2"/>
<feComposite in2="hardAlpha" operator="out"/>
<feColorMatrix type="matrix" values="0 0 0 0 0 0 0 0 0 0 0 0 0 0 0 0 0 0 0.25 0"/>
<feBlend mode="normal" in2="BackgroundImageFix" result="effect1_dropShadow_102_2"/>
<feBlend mode="normal" in="SourceGraphic" in2="effect1_dropShadow_102_2" result="shape"/>
</filter>
<filter id="filter3_d_102_2" x="61.331" y="144.862" width="1199.34" height="1032.77" filterUnits="userSpaceOnUse" color-interpolation-filters="sRGB">
<feFlood flood-opacity="0" result="BackgroundImageFix"/>
<feColorMatrix in="SourceAlpha" type="matrix" values="0 0 0 0 0 0 0 0 0 0 0 0 0 0 0 0 0 0 127 0" result="hardAlpha"/>
<feOffset/>
<feGaussianBlur stdDeviation="5"/>
<feComposite in2="hardAlpha" operator="out"/>
<feColorMatrix type="matrix" values="0 0 0 0 0 0 0 0 0 0 0 0 0 0 0 0 0 0 0.25 0"/>
<feBlend mode="normal" in2="BackgroundImageFix" result="effect1_dropShadow_102_2"/>
<feBlend mode="normal" in="SourceGraphic" in2="effect1_dropShadow_102_2" result="shape"/>
</filter>
<clipPath id="clip0_102_2">
<rect width="1322" height="1322" fill="white"/>
</clipPath>
</defs>
</svg>
