<svg width="200" height="173" viewBox="0 0 200 173" fill="none" xmlns="http://www.w3.org/2000/svg">
<g clip-path="url(#clip0_6_94)">
<path d="M200 87L150 173.603L50 173.603L-4.37114e-06 87L50 0.397454L150 0.397459L200 87Z" fill="#76B422"/>
<path d="M100.356 86.5006L143.564 11.6623L186.772 86.5005L100.356 86.5006Z" fill="#A5E80E"/>
<path d="M13.4431 86.5006L56.6509 11.6623L99.8588 86.5005L13.4431 86.5006Z" fill="#A9E81B"/>
<path d="M56.8995 11.4191L143.315 11.4191L100.107 86.2574L56.8995 11.4191Z" fill="#B2ED2E"/>
<path d="M99.5002 86.7438L56.2923 161.582L13.0844 86.7438L99.5002 86.7438Z" fill="#B2F122"/>
<path d="M186.413 86.7438L143.205 161.582L99.9975 86.7438L186.413 86.7438Z" fill="#A3E312"/>
<path d="M142.957 161.825L56.5411 161.825L99.749 86.987L142.957 161.825Z" fill="#9CDF04"/>
<path d="M55.3921 9.8866L10.7603 86.7335L55.3921 163.58H145.101L189.733 86.7335L145.101 9.8866H55.3921ZM22.6225 86.7335L58.9508 24.194L84.4548 69.4761C74.2235 77.8836 74.2235 95.7309 84.4548 104.138L58.9508 149.273L22.6225 86.7335ZM138.873 153.698H68.2924L93.4998 109.153C106.4 113.283 120.783 104.581 123.155 91.6009H174.905L138.873 153.698ZM123.155 81.866C120.635 69.0336 106.4 60.4787 93.4998 64.4612L68.2924 19.769H138.873L174.905 81.866H123.155Z" fill="#EDF4D5"/>
<rect x="141.991" y="11.3138" width="4" height="66.1952" transform="rotate(30 141.991 11.3138)" fill="#EDF4D5"/>
<rect x="145.136" y="159.857" width="4" height="63.3431" transform="rotate(150 145.136 159.857)" fill="#EDF4D5"/>
<rect x="81" y="84.75" width="4" height="61" transform="rotate(90 81 84.75)" fill="#EDF4D5"/>
</g>
<defs>
<clipPath id="clip0_6_94">
<rect width="200" height="173" fill="white"/>
</clipPath>
</defs>
</svg>
